<?xml version="1.0" encoding="UTF-8" standalone="no"?>
<!DOCTYPE svg PUBLIC "-//W3C//DTD SVG 1.1//EN" "http://www.w3.org/Graphics/SVG/1.1/DTD/svg11.dtd">
<svg width="100%" height="100%" viewBox="0 0 1066 843" version="1.1" xmlns="http://www.w3.org/2000/svg" xmlns:xlink="http://www.w3.org/1999/xlink" xml:space="preserve" xmlns:serif="http://www.serif.com/" style="fill-rule:evenodd;clip-rule:evenodd;stroke-linejoin:round;stroke-miterlimit:2;">
    <g transform="matrix(1,0,0,1,-63.29156,-56.094461)">
        <g id="Artboard1" transform="matrix(1.098075,0,0,0.872926,0,0)">
            <rect x="0" y="0" width="1080" height="1080" style="fill:none;"/>
            <g transform="matrix(1.136589,0,0,1.429743,-86.838298,-158.213837)">
                <path d="M127.114,155.836C127.114,155.836 420.817,155.315 420.817,155.836C420.817,273.04 303.482,337.942 243.707,363.402C241.753,364.216 240.704,366.35 241.252,368.395C241.8,370.439 243.776,371.763 245.875,371.491C307.844,363.476 427.409,347.999 427.409,347.999L427.409,443.646C427.409,443.646 133.661,443.776 133.661,443.646C133.661,313.482 231.105,253.024 285.314,229.461C287.249,228.636 288.282,226.513 287.736,224.482C287.191,222.451 285.233,221.131 283.145,221.386C226.86,228.271 127.114,240.488 127.114,240.488L127.114,155.836Z" style="fill:white;"/>
            </g>
            <g transform="matrix(0.978167,0.329701,-0.253438,1.189799,65.015666,-243.296467)">
                <path d="M685.164,359.679C685.164,359.679 660.721,450.55 572.682,450.55C484.643,450.55 445.46,397.487 445.46,299.654C445.46,201.821 496.546,148.385 572.682,148.385C648.818,148.385 687.984,208.389 687.984,317.748L507.891,317.748C504.065,317.748 500.443,319.532 498.031,322.603C495.619,325.675 494.675,329.707 495.46,333.579C499.603,353.715 514.827,385.926 570.078,385.926C617.074,385.926 632.948,340.583 632.948,340.583L685.164,359.679ZM497.371,267.675L632.954,267.675C632.954,267.675 631.955,199.899 569.034,199.899C506.113,199.899 497.371,267.675 497.371,267.675Z" style="fill:white;"/>
            </g>
            <g transform="matrix(2.688327,0,0,3.381712,-544.886987,-1347.503496)">
                <g transform="matrix(164.350252,0,0,164.350252,217.083253,667.726087)">
                    <path d="M0.176,-0.7L0.078,-0.7L0.078,-0L0.176,-0L0.176,-0.073C0.215,-0.014 0.289,0.008 0.356,0.009C0.545,0.009 0.636,-0.124 0.636,-0.273C0.636,-0.419 0.541,-0.55 0.358,-0.55C0.291,-0.55 0.223,-0.535 0.176,-0.471L0.176,-0.7ZM0.176,-0.271C0.176,-0.401 0.268,-0.465 0.36,-0.464C0.478,-0.462 0.537,-0.368 0.538,-0.273C0.539,-0.174 0.476,-0.075 0.352,-0.078C0.263,-0.08 0.176,-0.144 0.176,-0.271Z" style="fill:white;fill-rule:nonzero;"/>
                </g>
                <g transform="matrix(164.350252,0,0,164.350252,329.005774,667.726087)">
                    <rect x="0.075" y="-0.7" width="0.098" height="0.7" style="fill:white;fill-rule:nonzero;"/>
                </g>
                <g transform="matrix(164.350252,0,0,164.350252,369.764637,667.726087)">
                    <path d="M0.635,-0.27C0.635,-0.456 0.491,-0.55 0.345,-0.55C0.198,-0.55 0.052,-0.457 0.052,-0.27C0.052,-0.084 0.197,0.01 0.342,0.01C0.489,0.01 0.635,-0.083 0.635,-0.27ZM0.15,-0.27C0.15,-0.399 0.247,-0.463 0.345,-0.463C0.441,-0.463 0.538,-0.398 0.538,-0.27C0.538,-0.142 0.44,-0.077 0.342,-0.078C0.246,-0.079 0.15,-0.143 0.15,-0.27Z" style="fill:white;fill-rule:nonzero;"/>
                </g>
                <g transform="matrix(164.350252,0,0,164.350252,483.823712,667.726087)">
                    <path d="M0.617,-0.02L0.617,-0.541L0.52,-0.541L0.52,-0.469C0.48,-0.527 0.406,-0.55 0.339,-0.55C0.15,-0.551 0.05,-0.418 0.05,-0.269C0.05,-0.122 0.155,-0.001 0.337,-0.001C0.404,-0.001 0.472,-0.015 0.519,-0.077L0.519,-0.02C0.519,0.084 0.424,0.125 0.338,0.126C0.267,0.127 0.173,0.105 0.173,0.036L0.076,0.036C0.076,0.159 0.203,0.213 0.339,0.213C0.473,0.213 0.617,0.148 0.617,-0.02ZM0.336,-0.087C0.217,-0.087 0.149,-0.174 0.148,-0.269C0.148,-0.367 0.219,-0.467 0.343,-0.464C0.46,-0.461 0.519,-0.38 0.519,-0.284C0.519,-0.184 0.458,-0.087 0.336,-0.087Z" style="fill:white;fill-rule:nonzero;"/>
                </g>
            </g>
            <g transform="matrix(3.355194,0,0,4.22058,-26.12976,-2304.076981)">
                <g transform="matrix(164.350252,0,0,164.350252,217.083253,667.726087)">
                    <rect x="0.005" y="-0.429" width="0.308" height="0.154" style="fill:white;fill-rule:nonzero;"/>
                </g>
            </g>
        </g>
    </g>
</svg>
